<svg width="1234" height="504" viewBox="0 0 1234 504" fill="none" xmlns="http://www.w3.org/2000/svg">
<path d="M1207.32 356.012C1203.78 376.127 1184.06 392.553 1151.07 404.943C1118.12 417.32 1072.1 425.601 1016.3 429.539C904.706 437.413 754.112 427.905 590.971 399.139C427.831 370.373 283.067 327.801 180.899 282.235C129.811 259.451 89.4002 235.929 62.6684 213.029C35.9071 190.103 22.9929 167.922 26.5396 147.808C30.0864 127.694 49.8079 111.267 82.7964 98.8772C115.749 86.5005 161.767 78.2189 217.567 74.2815C329.158 66.4074 479.752 75.9153 642.892 104.681C806.032 133.447 950.797 176.019 1052.96 221.585C1104.05 244.369 1144.46 267.891 1171.2 290.791C1197.96 313.717 1210.87 335.898 1207.32 356.012Z" stroke="#F3784D"/>
</svg>
