<svg width="54" height="54" viewBox="0 0 54 54" fill="none" xmlns="http://www.w3.org/2000/svg">
<path d="M0 15C0 6.71573 6.71573 0 15 0H49C51.7614 0 54 2.23858 54 5V39C54 47.2843 47.2843 54 39 54H5C2.23858 54 0 51.7614 0 49V15Z" fill="#E4E4E4"/>
<g clip-path="url(#clip0)">
<g opacity="0.3" filter="url(#filter0_f)">
<circle cx="54" r="40" fill="#A0DEFE"/>
</g>
</g>
<path d="M26.96 10C26.4167 10 25.8734 10.1366 25.3895 10.4097L12.5883 17.603C11.6086 18.1522 11 19.1823 11 20.2867V34.6733C11 35.7777 11.6086 36.8078 12.5883 37.357L25.3895 44.5503C25.8734 44.8234 26.4167 44.96 26.96 44.96C27.5033 44.96 28.0466 44.8234 28.5305 44.5503L41.3317 37.36C42.3114 36.8078 42.92 35.7777 42.92 34.6733V20.2867C42.92 19.1823 42.3114 18.1522 41.3317 17.603L28.5305 10.4097C28.0466 10.1366 27.5033 10 26.96 10ZM26.96 18.36C29.8337 18.36 32.4908 19.693 34.2127 21.9611L30.8817 23.8908C29.8812 22.7953 28.4592 22.16 26.96 22.16C24.0269 22.16 21.64 24.5469 21.64 27.48C21.64 30.4131 24.0269 32.8 26.96 32.8C28.4592 32.8 29.8812 32.1647 30.8817 31.0692L34.2127 32.9989C32.4908 35.267 29.8337 36.6 26.96 36.6C21.9309 36.6 17.84 32.5091 17.84 27.48C17.84 22.4509 21.9309 18.36 26.96 18.36ZM34.56 23.68H36.08V25.2H37.6V23.68H39.12V25.2H40.64V26.72H39.12V28.24H40.64V29.76H39.12V31.28H37.6V29.76H36.08V31.28H34.56V29.76H33.04V28.24H34.56V26.72H33.04V25.2H34.56V23.68ZM36.08 26.72V28.24H37.6V26.72H36.08Z" fill="black"/>
<defs>
<filter id="filter0_f" x="-6" y="-60" width="120" height="120" filterUnits="userSpaceOnUse" color-interpolation-filters="sRGB">
<feFlood flood-opacity="0" result="BackgroundImageFix"/>
<feBlend mode="normal" in="SourceGraphic" in2="BackgroundImageFix" result="shape"/>
<feGaussianBlur stdDeviation="10" result="effect1_foregroundBlur"/>
</filter>
<clipPath id="clip0">
<path d="M0 15C0 6.71573 6.71573 0 15 0H49C51.7614 0 54 2.23858 54 5V39C54 47.2843 47.2843 54 39 54H5C2.23858 54 0 51.7614 0 49V15Z" fill="white"/>
</clipPath>
</defs>
</svg>
