<svg width="35" height="21" viewBox="0 0 35 21" fill="none" xmlns="http://www.w3.org/2000/svg">
<rect width="35" height="21" rx="2" fill="#282828"/>
<path d="M19.7741 4.77509L18.3349 4.77271C16.7181 4.77271 15.6733 5.87916 15.6733 7.59168V8.89142H14.2263C14.1013 8.89142 14 8.99605 14 9.12511V11.0083C14 11.1373 14.1014 11.2418 14.2263 11.2418H15.6733V15.9937C15.6733 16.1227 15.7745 16.2273 15.8996 16.2273H17.7875C17.9125 16.2273 18.0137 16.1226 18.0137 15.9937V11.2418H19.7056C19.8306 11.2418 19.9319 11.1373 19.9319 11.0083L19.9326 9.12511C19.9326 9.06314 19.9087 9.0038 19.8663 8.95994C19.8239 8.91609 19.7662 8.89142 19.7062 8.89142H18.0137V7.78962C18.0137 7.26005 18.136 6.99121 18.8044 6.99121L19.7738 6.99085C19.8987 6.99085 20 6.88622 20 6.75729V5.00865C20 4.87983 19.8989 4.77533 19.7741 4.77509Z" fill="white"/>
</svg>
