<svg width="171" height="25" viewBox="0 0 171 25" fill="none" xmlns="http://www.w3.org/2000/svg">
<path d="M41.2881 19H39.7236V7.75879H32.9385V19H31.3477V6.31738H41.2881V19ZM48.1348 9.70117C49.3066 9.70117 50.25 10.1318 50.9648 10.9932C51.6855 11.8545 52.0459 13 52.0459 14.4297C52.0459 15.8535 51.6885 16.999 50.9736 17.8662C50.2588 18.7275 49.3242 19.1582 48.1699 19.1582C47.5254 19.1582 46.9482 19.0117 46.4385 18.7188C45.9287 18.4258 45.5361 18.0244 45.2607 17.5146H45.2256V22.0498H43.6963V9.85938H45.1465V11.4062H45.1816C45.4688 10.8789 45.8701 10.4629 46.3857 10.1582C46.9014 9.85352 47.4844 9.70117 48.1348 9.70117ZM47.8359 17.8135C48.6504 17.8135 49.2949 17.5088 49.7695 16.8994C50.2441 16.29 50.4814 15.4668 50.4814 14.4297C50.4814 13.3926 50.2441 12.5693 49.7695 11.96C49.2949 11.3506 48.6504 11.0459 47.8359 11.0459C47.0508 11.0459 46.418 11.3564 45.9375 11.9775C45.457 12.5986 45.2168 13.416 45.2168 14.4297C45.2168 15.4492 45.457 16.2695 45.9375 16.8906C46.418 17.5059 47.0508 17.8135 47.8359 17.8135ZM55.2539 19H53.7422V9.85938H55.2539V16.6621H55.3242L59.8945 9.85938H61.4062V19H59.8945V12.1973H59.8242L55.2539 19ZM66.6533 14.1836L71.0479 19H69.0791L65.1328 14.6055H65.0625V19H63.5508V9.85938H65.0625V13.9023H65.1328L69.0352 9.85938H70.9248L66.6533 14.1836ZM76.7695 9.70117C77.9414 9.70117 78.8848 10.1318 79.5996 10.9932C80.3203 11.8545 80.6807 13 80.6807 14.4297C80.6807 15.8535 80.3232 16.999 79.6084 17.8662C78.8936 18.7275 77.959 19.1582 76.8047 19.1582C76.1602 19.1582 75.583 19.0117 75.0732 18.7188C74.5635 18.4258 74.1709 18.0244 73.8955 17.5146H73.8604V22.0498H72.3311V9.85938H73.7812V11.4062H73.8164C74.1035 10.8789 74.5049 10.4629 75.0205 10.1582C75.5361 9.85352 76.1191 9.70117 76.7695 9.70117ZM76.4707 17.8135C77.2852 17.8135 77.9297 17.5088 78.4043 16.8994C78.8789 16.29 79.1162 15.4668 79.1162 14.4297C79.1162 13.3926 78.8789 12.5693 78.4043 11.96C77.9297 11.3506 77.2852 11.0459 76.4707 11.0459C75.6855 11.0459 75.0527 11.3564 74.5723 11.9775C74.0918 12.5986 73.8516 13.416 73.8516 14.4297C73.8516 15.4492 74.0918 16.2695 74.5723 16.8906C75.0527 17.5059 75.6855 17.8135 76.4707 17.8135ZM86.0508 11.0283C85.3418 11.0283 84.7529 11.2744 84.2842 11.7666C83.8213 12.2529 83.5664 12.8799 83.5195 13.6475H88.4854C88.4678 12.874 88.2363 12.2441 87.791 11.7578C87.3457 11.2715 86.7656 11.0283 86.0508 11.0283ZM88.4502 16.3809H89.9531C89.8184 17.1895 89.3965 17.8545 88.6875 18.376C87.9844 18.8975 87.1377 19.1582 86.1475 19.1582C84.8408 19.1582 83.8125 18.7363 83.0625 17.8926C82.3125 17.0488 81.9375 15.9062 81.9375 14.4648C81.9375 13.0352 82.3125 11.8838 83.0625 11.0107C83.8184 10.1377 84.8232 9.70117 86.0771 9.70117C87.3076 9.70117 88.2803 10.1143 88.9951 10.9404C89.71 11.7666 90.0674 12.874 90.0674 14.2627V14.8428H83.5107V14.9307C83.5107 15.8096 83.751 16.5127 84.2314 17.04C84.7119 17.5674 85.3623 17.8311 86.1826 17.8311C86.7568 17.8311 87.2461 17.6992 87.6504 17.4355C88.0547 17.1719 88.3213 16.8203 88.4502 16.3809ZM97.6963 19V11.1162H93.2754V19H91.7637V9.85938H99.2168V19H97.6963ZM102.873 19H101.361V9.85938H102.873V16.6621H102.943L107.514 9.85938H109.025V19H107.514V12.1973H107.443L102.873 19ZM117.858 9.85938V11.1162H114.905V19H113.394V11.1162H110.44V9.85938H117.858ZM122.49 14.0342H120.785V17.7432H122.49C123.082 17.7432 123.554 17.5732 123.905 17.2334C124.263 16.8936 124.441 16.4453 124.441 15.8887C124.441 15.3262 124.263 14.8779 123.905 14.5439C123.554 14.2041 123.082 14.0342 122.49 14.0342ZM119.273 19V9.85938H120.785V12.7773H122.517C123.565 12.7773 124.4 13.0586 125.021 13.6211C125.643 14.1836 125.953 14.9395 125.953 15.8887C125.953 16.8379 125.643 17.5938 125.021 18.1562C124.4 18.7188 123.565 19 122.517 19H119.273ZM135.604 17.8135V11.0459C134.625 11.0693 133.849 11.3828 133.274 11.9863C132.7 12.5898 132.413 13.4043 132.413 14.4297C132.413 15.4551 132.7 16.2695 133.274 16.873C133.849 17.4707 134.625 17.7842 135.604 17.8135ZM139.4 16.873C139.975 16.2695 140.262 15.4551 140.262 14.4297C140.262 13.4043 139.975 12.5928 139.4 11.9951C138.832 11.3916 138.059 11.0752 137.08 11.0459V17.8135C138.059 17.79 138.832 17.4766 139.4 16.873ZM135.604 19.1143C134.174 19.085 133.028 18.6484 132.167 17.8047C131.306 16.9609 130.875 15.8359 130.875 14.4297C130.875 13.0234 131.306 11.8984 132.167 11.0547C133.028 10.2051 134.174 9.76855 135.604 9.74512V6.85352H137.08V9.74512C138.504 9.77441 139.646 10.2139 140.508 11.0635C141.369 11.9072 141.8 13.0293 141.8 14.4297C141.8 15.8359 141.369 16.9639 140.508 17.8135C139.646 18.6572 138.504 19.0908 137.08 19.1143V22.0498H135.604V19.1143ZM146.537 17.8574C147.258 17.8574 147.861 17.6348 148.348 17.1895C148.84 16.7383 149.086 16.1846 149.086 15.5283V14.7812L146.643 14.9307C146.027 14.9717 145.55 15.1211 145.21 15.3789C144.876 15.6367 144.709 15.9824 144.709 16.416C144.709 16.8496 144.876 17.1982 145.21 17.4619C145.544 17.7256 145.986 17.8574 146.537 17.8574ZM146.194 19.1582C145.286 19.1582 144.551 18.9062 143.988 18.4023C143.432 17.8984 143.153 17.2363 143.153 16.416C143.153 15.6309 143.44 15.0039 144.015 14.5352C144.595 14.0664 145.412 13.8027 146.467 13.7441L149.086 13.5947V12.8301C149.086 12.2734 148.91 11.8369 148.559 11.5205C148.207 11.2041 147.715 11.0459 147.082 11.0459C146.502 11.0459 146.03 11.1748 145.667 11.4326C145.304 11.6846 145.072 12.0391 144.973 12.4961H143.496C143.549 11.6816 143.9 11.0137 144.551 10.4922C145.207 9.96484 146.062 9.70117 147.117 9.70117C148.189 9.70117 149.039 9.9707 149.666 10.5098C150.299 11.0488 150.615 11.7725 150.615 12.6807V19H149.165V17.4268H149.13C148.854 17.9482 148.45 18.3672 147.917 18.6836C147.384 19 146.81 19.1582 146.194 19.1582ZM154.236 19H152.725V9.85938H154.236V16.6621H154.307L158.877 9.85938H160.389V19H158.877V12.1973H158.807L154.236 19ZM153.894 5.9043H155.019C155.019 6.42578 155.174 6.85938 155.484 7.20508C155.801 7.55078 156.214 7.72363 156.724 7.72363C157.233 7.72363 157.644 7.55078 157.954 7.20508C158.271 6.85938 158.429 6.42578 158.429 5.9043H159.554C159.554 6.71289 159.29 7.36914 158.763 7.87305C158.241 8.37695 157.562 8.62891 156.724 8.62891C155.886 8.62891 155.203 8.37695 154.676 7.87305C154.154 7.36914 153.894 6.71289 153.894 5.9043ZM164.977 14.9658C164.936 15.4932 164.877 15.959 164.801 16.3633C164.73 16.7676 164.628 17.1455 164.493 17.4971C164.358 17.8486 164.191 18.1387 163.992 18.3672C163.799 18.5898 163.556 18.7656 163.263 18.8945C162.976 19.0176 162.642 19.0791 162.261 19.0791C162.05 19.0791 161.868 19.0469 161.716 18.9824V17.6025C161.856 17.6494 162.012 17.6729 162.182 17.6729C162.609 17.6729 162.929 17.4414 163.14 16.9785C163.351 16.5098 163.485 15.8271 163.544 14.9307L163.896 9.85938H169.881V19H168.369V11.1162H165.258L164.977 14.9658Z" fill="#282828"/>
<path d="M17.8666 12.2081L10.2082 19.8664C9.27005 20.8046 7.99757 21.3317 6.67075 21.3317C5.34393 21.3317 4.07145 20.8046 3.13325 19.8664C2.19505 18.9282 1.66797 17.6558 1.66797 16.3289C1.66797 15.0021 2.19505 13.7296 3.13325 12.7914L10.7916 5.1331C11.4171 4.50763 12.2654 4.15625 13.1499 4.15625C14.0345 4.15625 14.8828 4.50763 15.5082 5.1331C16.1337 5.75857 16.4851 6.60689 16.4851 7.49144C16.4851 8.37598 16.1337 9.2243 15.5082 9.84977L7.84158 17.5081C7.52885 17.8208 7.10469 17.9965 6.66242 17.9965C6.22014 17.9965 5.79598 17.8208 5.48325 17.5081C5.17051 17.1954 4.99482 16.7712 4.99482 16.3289C4.99482 15.8867 5.17051 15.4625 5.48325 15.1498L12.5582 8.0831" stroke="#282828" stroke-width="1.2" stroke-linecap="round" stroke-linejoin="round"/>
</svg>
