<svg width="210" height="55" viewBox="0 0 210 55" fill="none" xmlns="http://www.w3.org/2000/svg">
<g clip-path="url(#clip0)">
<path d="M83.5254 26H70.0312C66.1484 25.7721 64.5078 22.5775 65.1094 16.416C65.7109 10.2546 68.1035 7.06901 72.2871 6.85938L85.4258 6.87305L84.9609 11.5352H73.3535C72.4876 11.5443 71.8542 11.8496 71.4531 12.4512C70.5234 14.821 70.1543 17.1908 70.3457 19.5605C70.446 20.3171 70.9017 20.8001 71.7129 21.0098L84.0176 21.0371L83.5254 26ZM85.1715 25.9453L86.4703 12.916C87.0719 8.99674 89.4371 6.95052 93.566 6.77734L100.046 6.79102C103.802 7.04622 105.565 9.07422 105.337 12.875L104.025 25.9727H98.9391L99.527 20.1484L91.023 20.1074L90.4488 25.9453H85.1715ZM93.7711 11.3027C92.4039 11.3392 91.7294 12.0137 91.7477 13.3262L91.5289 15.3633H100.019L100.197 13.7637C100.47 12.2871 100.042 11.4622 98.9117 11.2891L93.7711 11.3027ZM106.245 26H111.96L112.685 18.6172H119.808L119.042 26.0273L124.825 26.0547L126.739 6.83203L121.025 6.79102L120.273 13.8867L113.163 13.9141L113.874 6.83203H108.159L106.245 26ZM127.141 26L132.87 25.9863L133.471 20.0254H141.36C145.325 19.7884 147.522 17.5872 147.95 13.4219C148.388 9.25651 146.514 7.06901 142.331 6.85938H129.055L127.141 26ZM134.388 11.6445H141.483C142.632 11.8177 143.124 12.4147 142.96 13.4355C142.805 14.4473 142.203 14.9486 141.155 14.9395L134.059 14.9668L134.388 11.6445ZM148.658 25.9453L149.957 12.916C150.559 8.99674 152.924 6.95052 157.053 6.77734L163.533 6.79102C167.288 7.04622 169.052 9.07422 168.824 12.875L167.512 25.9727H162.426L163.014 20.1484L154.51 20.1074L153.936 25.9453H148.658ZM157.258 11.3027C155.891 11.3392 155.216 12.0137 155.234 13.3262L155.016 15.3633H163.506L163.684 13.7637C163.957 12.2871 163.529 11.4622 162.398 11.2891L157.258 11.3027ZM190.445 6.87305L188.517 26.041H175.57C171.824 26.1139 170.056 24.0814 170.265 19.9434L171.578 6.88672H176.65L175.379 18.8496C175.151 20.0892 175.606 20.668 176.746 20.5859H183.8L185.168 6.88672L190.445 6.87305ZM179.179 4.08398C179.243 2.43424 180.041 1.54102 181.572 1.4043C183.213 1.4681 184.078 2.29297 184.17 3.87891C184.106 5.45573 183.226 6.26693 181.531 6.3125C180.136 6.14844 179.352 5.4056 179.179 4.08398ZM209.837 26H196.343C192.46 25.7721 190.82 22.5775 191.421 16.416C192.023 10.2546 194.415 7.06901 198.599 6.85938L211.738 6.87305L211.273 11.5352H199.665C198.799 11.5443 198.166 11.8496 197.765 12.4512C196.835 14.821 196.466 17.1908 196.657 19.5605C196.758 20.3171 197.213 20.8001 198.025 21.0098L210.329 21.0371L209.837 26ZM64.4531 51L70.1816 50.9863L70.7832 45.0254H78.6719C82.6367 44.7884 84.8333 42.5872 85.2617 38.4219C85.6992 34.2565 83.8262 32.069 79.6426 31.8594H66.3672L64.4531 51ZM71.6992 36.6445H78.7949C79.9434 36.8177 80.4355 37.4147 80.2715 38.4355C80.1165 39.4473 79.515 39.9486 78.4668 39.9395L71.3711 39.9668L71.6992 36.6445ZM108.109 51H94.628C90.7635 50.7721 89.1274 47.5866 89.7198 41.4434C90.3214 35.291 92.714 32.11 96.8976 31.9004H110.009L109.544 36.5488L97.923 36.5625C96.9386 36.526 96.3507 36.7721 96.1593 37.3008L95.6945 38.9414L109.325 38.9551L108.833 43.5488L95.3116 43.4941L95.3253 44.5742C95.3618 45.4857 95.6899 45.9779 96.3097 46.0508L108.601 46.0371L108.109 51ZM133.791 51H120.297C116.414 50.7721 114.773 47.5775 115.375 41.416C115.976 35.2546 118.369 32.069 122.553 31.8594L135.691 31.873L135.226 36.5352H123.619C122.753 36.5443 122.12 36.8496 121.719 37.4512C120.789 39.821 120.42 42.1908 120.611 44.5605C120.711 45.3171 121.167 45.8001 121.978 46.0098L134.283 46.0371L133.791 51ZM161.359 31.8867L159.814 47.3496C159.605 49.61 158.188 50.9134 155.562 51.2598L140.783 51.2871L141.234 46.1602L152.76 46.1738C153.908 46.1738 154.537 45.6178 154.646 44.5059L154.633 44.3965H147.1C143.354 44.4876 141.581 42.4505 141.781 38.2852L142.438 31.9004L147.523 31.8867L147.059 37.1367C146.931 38.2305 147.341 38.8275 148.289 38.9277H155.316L156.068 31.8867H161.359ZM165.762 51L171.49 50.9863L172.092 45.0254H179.98C183.945 44.7884 186.142 42.5872 186.57 38.4219C187.008 34.2565 185.135 32.069 180.951 31.8594H167.676L165.762 51ZM173.008 36.6445H180.104C181.252 36.8177 181.744 37.4147 181.58 38.4355C181.425 39.4473 180.824 39.9486 179.775 39.9395L172.68 39.9668L173.008 36.6445ZM209.362 51H195.868C191.985 50.7721 190.345 47.5775 190.946 41.416C191.548 35.2546 193.941 32.069 198.124 31.8594L211.263 31.873L210.798 36.5352H199.191C198.325 36.5443 197.691 36.8496 197.29 37.4512C196.36 39.821 195.991 42.1908 196.183 44.5605C196.283 45.3171 196.739 45.8001 197.55 46.0098L209.855 46.0371L209.362 51Z" fill="#F3784D"/>
<g filter="url(#filter0_d)">
<g filter="url(#filter1_d)">
<path d="M31.135 0.605868L30.137 0.516116C28.602 0.438509 28.5419 0.435906 27.6048 0.450399C26.3925 0.494095 26.3925 0.494095 25.7521 0.548936C24.7775 0.646393 24.7775 0.646393 24.284 0.715656C23.4551 0.841515 23.4551 0.841515 23.042 0.918618C22.2989 1.06513 22.2989 1.06513 21.9308 1.15023C21.2308 1.31804 21.2308 1.31804 20.8833 1.41201C20.202 1.60346 20.1889 1.60725 19.8397 1.71671C19.1294 1.94665 19.1294 1.94665 18.7791 2.07154C18.0596 2.33721 18.0459 2.34251 17.6788 2.49119C16.9088 2.81435 16.8787 2.82732 16.4731 3.01514C15.5885 3.43953 15.5542 3.45643 15.078 3.71038C14.0312 4.29257 13.9687 4.32744 13.3684 4.70447L13.0384 4.91581C16.8822 2.55418 25.6241 0.157211 31.135 0.605868Z" fill="url(#paint0_linear)"/>
<path d="M31.1322 0.607212L30.1342 0.516357C28.5993 0.437243 28.5392 0.434582 27.6023 0.44835C26.3901 0.491186 26.3901 0.491186 25.7499 0.545672C24.7755 0.642634 24.7755 0.642634 24.2821 0.711708C23.4533 0.837281 23.4533 0.837281 23.0404 0.914286C22.2975 1.06065 22.2975 1.06065 21.9296 1.14571C21.2297 1.31347 21.2297 1.31347 20.8824 1.40746C20.2013 1.59894 20.1883 1.60273 19.8392 1.71225C19.1292 1.94233 19.1292 1.94233 18.779 2.06733C18.0598 2.33324 18.0462 2.33854 17.6792 2.48739C16.9096 2.81093 16.8795 2.82391 16.4741 3.01199C15.59 3.43699 15.5558 3.45392 15.0798 3.70827C14.0337 4.29143 13.9712 4.32636 13.3713 4.70408L13.0416 4.91581C16.8828 2.54993 25.6215 0.152611 31.1322 0.607212Z" fill="url(#paint1_linear)"/>
<path d="M43.6078 5.10472C42.6119 4.49009 41.2577 3.71099 40.2197 3.16772C39.5186 2.85963 38.5862 2.44285 37.8719 2.167C30.3334 -0.0977067 11.568 5.38003 7.91064 9.17607C6.6187 10.6738 5.59797 11.8575 4.25981 14.1621C8.39687 8.35753 36.5635 0.946472 43.6078 5.10472Z" fill="url(#paint2_linear)"/>
<path d="M52.0076 14.0154C51.34 12.8387 50.585 11.7291 49.7524 10.6908L48.4245 9.15552C41.1284 3.06537 4.56116 13.1789 1.87449 19.6235C1.2504 22.0489 1.09223 22.7314 0.81022 25.6123C2.78719 18.7621 45.3479 6.55733 52.0076 14.0154Z" fill="url(#paint3_linear)"/>
<path d="M55.2695 25.4398C55.1843 23.4677 54.8687 21.4803 54.3054 19.5122C46.5633 11.2063 1.55672 25.0666 1.1428 31.589C1.13894 31.6467 1.15129 31.7238 1.15558 31.7817C1.3577 32.695 1.62684 33.9146 1.8813 34.8157C2.20567 35.7521 2.64407 37.0006 3.02603 37.9158C1.44914 30.6916 44.8839 19.2244 54.0976 24.4327C54.3408 24.5709 54.8478 24.857 55.2695 25.4398ZM54.1015 18.8357C54.2052 19.0283 54.3628 19.2792 54.4328 19.4856C54.0021 18.281 53.37 16.6938 52.8444 15.5253C52.528 14.9472 52.1285 14.1649 51.7887 13.5999L51.6346 13.3757C52.6509 15.0584 53.4839 16.8835 54.1015 18.8357Z" fill="url(#paint4_linear)"/>
<path d="M53.1287 36.7758C53.8937 34.9908 54.4642 33.1269 54.8227 31.2151C47.9318 23.0185 6.35616 37.5293 5.9351 42.4447C5.91462 42.6877 6.04648 43.0109 6.15875 43.2291L6.64327 43.8514C8.32693 45.7898 8.63077 46.1387 10.4443 47.7228C6.51358 43.6176 33.8482 34.1219 47.467 34.8609C51.8481 35.0983 52.7128 36.232 53.1287 36.7758ZM54.9381 30.5553C55.2782 31.2949 55.2852 31.309 55.1858 32.1257C55.6329 29.0115 55.6329 29.0115 55.5781 25.8402C55.449 25.0648 55.4464 25.0497 55.2034 24.6938C55.3414 26.6696 55.2471 28.6345 54.9381 30.5553Z" fill="url(#paint5_linear)"/>
<path d="M46.3266 46.2187C47.7984 44.8809 49.1108 43.3986 50.2472 41.8048C45.9924 35.7284 15.5061 46.3123 14.8382 49.9411C14.7274 50.5432 15.1285 50.797 15.5164 51.0429L16.1759 51.3713C18.2296 52.273 18.7815 52.5153 21.4147 53.2731C18.5177 52.3784 22.0621 50.3474 23.7214 49.5155C31.1921 45.769 44.8549 43.3072 46.3266 46.2187ZM50.6315 41.2516C50.8005 41.7369 50.9912 42.2864 50.0968 43.452C51.556 41.4031 51.6745 41.2358 52.5972 39.5324L53.3577 37.9475C53.6434 37.13 53.7108 36.8613 53.364 36.1016C52.6439 37.9045 51.7267 39.6322 50.6315 41.2516Z" fill="url(#paint6_linear)"/>
<path d="M42.2262 48.4633C42.1679 50.7565 32.8318 54.1827 32.2677 53.2752C31.8346 52.5784 35.6154 51.6085 36.1079 51.8484C36.1386 51.8631 36.1526 51.867 36.1657 51.9049C36.2243 52.0746 35.3321 52.5655 35.136 52.6692C32.0709 54.2267 35.1381 53.0086 35.1381 53.0086C37.1551 52.3799 39.8393 50.9717 41.5973 49.9617C41.0723 47.4513 27.9663 50.7633 26.3576 52.9836C26.0671 53.3852 25.9064 54.0623 28.0992 54.0921L28.7881 54.0874C30 54.0436 30 54.0436 30.6401 53.9889C31.6144 53.8917 31.6144 53.8917 32.1077 53.8227C32.9364 53.6972 32.9364 53.6972 33.3493 53.6204C34.0922 53.4744 34.0922 53.4744 34.4601 53.3896C35.16 53.2224 35.16 53.2224 35.5073 53.1287C36.1884 52.938 36.2014 52.9342 36.5506 52.8252C37.2607 52.5961 37.2607 52.5961 37.6109 52.4717C38.3302 52.2071 38.3438 52.2018 38.7108 52.0537C39.4806 51.7318 39.5107 51.7189 39.9162 51.5318C40.8006 51.1092 40.8348 51.0923 41.3109 50.8394C42.3574 50.2596 42.42 50.2248 43.0201 49.8494C44.2838 49.0155 44.4164 48.9281 45.2533 48.2835L45.2756 48.266C46.6173 47.1567 47.0061 46.5133 46.8156 45.7159C45.3808 47.087 44.1806 47.3186 42.4423 48.3761" fill="url(#paint7_linear)"/>
<path d="M26.3518 0.506352C28.271 1.84184 21.9409 5.64337 16.2197 6.64888C12.9043 7.23195 11.1411 6.84872 12.0286 5.73776C12.2944 5.40486 12.7218 5.11717 13.0343 4.90704L13.3645 4.69645C14.4432 4.04494 14.4637 4.03192 15.0755 3.70568C15.992 3.23459 15.992 3.23459 16.4716 3.01253C17.2706 2.65555 17.2706 2.65555 17.6781 2.48999C18.4089 2.20307 18.4089 2.20307 18.7789 2.07131C19.4827 1.82841 19.4827 1.82841 19.8401 1.71715C20.5373 1.5067 20.5373 1.5067 20.8842 1.41288C21.5813 1.23154 21.5813 1.23154 21.9321 1.15128C22.6553 0.992942 22.6692 0.989833 23.0436 0.919626C23.848 0.778407 23.8634 0.775922 24.286 0.716316C25.212 0.598242 25.2479 0.593653 25.7545 0.548796C26.8829 0.468091 26.9499 0.462877 27.6074 0.448655C29.0332 0.447717 29.1827 0.447888 30.1397 0.511113L31.1377 0.599241C31.9647 0.707553 34.4919 0.933352 35.1601 1.47145C33.2154 1.15568 31.3817 0.942359 29.3583 1.05974C28.0349 0.382257 25.3922 0.811322 22.8848 1.36217C19.7577 2.04917 16.8481 3.02304 17.053 3.40509C17.3451 3.9502 20.6594 3.16719 21.3082 2.40405L21.4153 2.26215C21.5409 1.75511 20.6509 1.84228 20.6768 1.81301" fill="url(#paint8_linear)"/>
<path d="M40.2246 3.16576C41.2594 3.7098 42.6176 4.4778 43.611 5.09218C43.796 5.2353 44.048 5.42335 44.2098 5.592C42.6202 4.5125 40.9094 3.60751 39.109 2.89309C38.594 2.46614 38.5838 2.4581 37.8777 2.17037C38.5855 2.46162 39.5399 2.82647 40.2246 3.16576ZM35.1494 1.45482C38.9787 6.48632 14.2149 17.6131 5.80849 16.0575C4.73156 15.8585 3.58733 15.3661 4.25039 14.1533C5.29678 12.4658 6.12421 11.133 7.90676 9.18255C5.97567 11.5404 10.6972 11.2259 12.1901 11.0729C21.5272 10.1175 31.9621 3.88291 29.3487 1.04369C29.8068 1.10605 28.7915 0.758356 29.254 0.75938C30.765 0.762901 33.7559 0.942057 35.1494 1.45482Z" fill="url(#paint9_linear)"/>
<path d="M49.7831 10.6661C49.4021 10.1935 49.0043 9.73568 48.5914 9.29342L48.4586 9.14471L49.7831 10.6661ZM48.133 8.81591C52.6495 16.0296 13.9073 29.6877 2.85883 27.3412C1.39678 27.0306 0.73262 26.481 0.768826 25.6122C1.02204 23.1848 1.09003 22.5324 1.85038 19.6615C0.772605 25.0553 27.5146 19.22 39.4998 11.4461C42.2664 9.65126 45.2365 7.11229 43.6727 5.20626C45.2879 6.23884 46.7855 7.44807 48.133 8.81591Z" fill="#FFFF00"/>
<path d="M49.7596 10.6867C49.3779 10.2118 48.9796 9.75183 48.5662 9.3074L48.4332 9.15796L49.7596 10.6867ZM48.1072 8.82751C52.6336 16.0731 13.9365 29.7145 2.89006 27.342C1.42828 27.028 0.763536 26.4754 0.79822 25.6037C1.04709 23.1685 1.11392 22.514 1.86888 19.6346C0.801034 25.045 27.5182 19.2334 39.4833 11.4526C42.2452 9.65615 45.2093 7.11338 43.6431 5.19832C45.2592 6.23703 46.758 7.45282 48.1072 8.82751Z" fill="url(#paint10_linear)"/>
<path d="M52.8601 15.5212C53.381 16.6875 54.0181 18.2686 54.4448 19.471C55.9698 29.1114 9.66413 42.7679 3.56168 38.5322C3.35441 38.3885 3.13521 38.1221 3.00421 37.9087C2.64251 36.9881 2.16708 35.7563 1.86242 34.8167C1.62987 33.9122 1.3183 32.7058 1.13969 31.7904C3.73873 38.8696 46.7232 25.5812 51.6814 16.165C52.4427 14.7198 51.9802 13.907 51.8062 13.6013C52.1227 14.177 52.58 14.9278 52.8601 15.5212Z" fill="url(#paint11_linear)"/>
<path d="M52.8316 15.5251C53.354 16.6951 53.9931 18.2813 54.4213 19.4873C55.9594 29.1551 9.69649 42.7863 3.59095 38.5313C3.38357 38.387 3.16409 38.1196 3.03285 37.9054C2.67 36.982 2.19303 35.7463 1.88717 34.8038C1.65343 33.8966 1.34027 32.6867 1.16043 31.7686C3.7684 38.8699 46.7124 25.6034 51.6545 16.1691C52.4134 14.7211 51.9498 13.9055 51.7755 13.5987C52.0927 14.1764 52.5508 14.9298 52.8316 15.5251Z" fill="url(#paint12_linear)"/>
<path d="M55.219 32.0859C52.0991 40.9751 15.9321 51.6761 10.3946 47.7137C8.53732 46.0513 8.15057 45.7057 6.60094 43.8732L6.11772 43.2555C12.1739 48.9601 55.6704 33.6546 55.629 25.8336C55.6807 29.4177 55.4347 31.2121 55.219 32.0859Z" fill="url(#paint13_linear)"/>
<path d="M52.6077 39.5195C51.4114 41.6159 51.2573 41.8856 50.1023 43.4343C45.0381 49.1944 26.4784 54.4632 21.3992 53.2641C19.1018 52.6019 18.5049 52.4013 16.1606 51.3709L15.5011 51.0438C22.1688 53.6813 49.7895 45.0654 53.3702 37.9361L52.6077 39.5195Z" fill="url(#paint14_linear)"/>
<path d="M45.2557 48.2717C43.9712 49.2246 43.8947 49.2814 43.02 49.8374C41.9414 50.4885 41.9209 50.5016 41.3091 50.8276C40.3927 51.2984 40.3927 51.2985 39.9131 51.5204C39.1142 51.8772 39.1142 51.8772 38.7067 52.0426C37.9759 52.3294 37.9759 52.3294 37.6059 52.4611C36.9022 52.7038 36.9022 52.7038 36.5448 52.8151C35.8476 53.0254 35.8476 53.0254 35.5008 53.1192C34.8037 53.3004 34.8037 53.3004 34.4529 53.3806C33.7297 53.5389 33.7159 53.542 33.3414 53.6121C32.5371 53.7533 32.5217 53.7558 32.0991 53.8153C31.1732 53.9333 31.1373 53.9379 30.6308 53.9828C29.5024 54.0634 29.4354 54.0686 28.7779 54.0828L28.0887 54.0883C32.5935 53.9888 41.0829 51.4188 45.2781 48.2534L45.2557 48.2717Z" fill="url(#paint15_linear)"/>
</g>
</g>
</g>
<defs>
<filter id="filter0_d" x="-162" y="-66" width="1170.79" height="1280.29" filterUnits="userSpaceOnUse" color-interpolation-filters="sRGB">
<feFlood flood-opacity="0" result="BackgroundImageFix"/>
<feColorMatrix in="SourceAlpha" type="matrix" values="0 0 0 0 0 0 0 0 0 0 0 0 0 0 0 0 0 0 127 0"/>
<feOffset dx="-40" dy="55"/>
<feGaussianBlur stdDeviation="60"/>
<feColorMatrix type="matrix" values="0 0 0 0 0 0 0 0 0 0 0 0 0 0 0 0 0 0 0.07 0"/>
<feBlend mode="normal" in2="BackgroundImageFix" result="effect1_dropShadow"/>
<feBlend mode="normal" in="SourceGraphic" in2="effect1_dropShadow" result="shape"/>
</filter>
<filter id="filter1_d" x="-59.2326" y="-44.558" width="134.869" height="133.65" filterUnits="userSpaceOnUse" color-interpolation-filters="sRGB">
<feFlood flood-opacity="0" result="BackgroundImageFix"/>
<feColorMatrix in="SourceAlpha" type="matrix" values="0 0 0 0 0 0 0 0 0 0 0 0 0 0 0 0 0 0 127 0"/>
<feOffset dx="-20" dy="-5"/>
<feGaussianBlur stdDeviation="20"/>
<feColorMatrix type="matrix" values="0 0 0 0 0.170833 0 0 0 0 0.084712 0 0 0 0 0.0156597 0 0 0 0.02 0"/>
<feBlend mode="normal" in2="BackgroundImageFix" result="effect1_dropShadow"/>
<feBlend mode="normal" in="SourceGraphic" in2="effect1_dropShadow" result="shape"/>
</filter>
<linearGradient id="paint0_linear" x1="12.909" y1="3.15853" x2="31.2232" y2="1.80673" gradientUnits="userSpaceOnUse">
<stop stop-color="#BDCCD4"/>
<stop offset="1" stop-color="#E6E6E6"/>
</linearGradient>
<linearGradient id="paint1_linear" x1="12.9106" y1="3.15291" x2="31.2199" y2="1.78935" gradientUnits="userSpaceOnUse">
<stop stop-color="#BDCCD4"/>
<stop offset="1" stop-color="#E6E6E6"/>
</linearGradient>
<linearGradient id="paint2_linear" x1="3.8684" y1="8.85825" x2="43.668" y2="5.92032" gradientUnits="userSpaceOnUse">
<stop offset="0.175" stop-color="#CC3400"/>
<stop offset="1" stop-color="#882200"/>
</linearGradient>
<linearGradient id="paint3_linear" x1="0.228943" y1="17.7413" x2="52.0002" y2="13.917" gradientUnits="userSpaceOnUse">
<stop offset="0.175" stop-color="#CC3400"/>
<stop offset="1" stop-color="#882200"/>
</linearGradient>
<linearGradient id="paint4_linear" x1="0.828949" y1="27.3974" x2="55.1292" y2="23.3819" gradientUnits="userSpaceOnUse">
<stop offset="0.175" stop-color="#CC3400"/>
<stop offset="1" stop-color="#882200"/>
</linearGradient>
<linearGradient id="paint5_linear" x1="5.59914" y1="38.0077" x2="56.201" y2="34.2655" gradientUnits="userSpaceOnUse">
<stop offset="0.175" stop-color="#CC3400"/>
<stop offset="1" stop-color="#882200"/>
</linearGradient>
<linearGradient id="paint6_linear" x1="14.5261" y1="46.1987" x2="54.0694" y2="43.2748" gradientUnits="userSpaceOnUse">
<stop offset="0.175" stop-color="#CC3400"/>
<stop offset="1" stop-color="#882200"/>
</linearGradient>
<linearGradient id="paint7_linear" x1="25.9899" y1="50.6986" x2="47.0908" y2="49.139" gradientUnits="userSpaceOnUse">
<stop offset="0.175" stop-color="#CC3400"/>
<stop offset="1" stop-color="#882200"/>
</linearGradient>
<linearGradient id="paint8_linear" x1="23.25" y1="0.713901" x2="23.6223" y2="6.26922" gradientUnits="userSpaceOnUse">
<stop stop-color="#F3784D"/>
<stop offset="0.758333" stop-color="#FF622B"/>
</linearGradient>
<linearGradient id="paint9_linear" x1="23.4691" y1="1.14474" x2="24.4041" y2="15.1168" gradientUnits="userSpaceOnUse">
<stop stop-color="#F3784D"/>
<stop offset="0.758333" stop-color="#FF622B"/>
</linearGradient>
<linearGradient id="paint10_linear" x1="24.4217" y1="6.48411" x2="25.7507" y2="26.3516" gradientUnits="userSpaceOnUse">
<stop stop-color="#F3784D"/>
<stop offset="0.758333" stop-color="#FF622B"/>
</linearGradient>
<linearGradient id="paint11_linear" x1="0.893032" y1="28.4233" x2="54.8212" y2="24.4817" gradientUnits="userSpaceOnUse">
<stop stop-color="#E6E6E6"/>
<stop offset="1" stop-color="#BDCCD4"/>
</linearGradient>
<linearGradient id="paint12_linear" x1="27.0234" y1="15.2269" x2="28.5229" y2="38.0236" gradientUnits="userSpaceOnUse">
<stop stop-color="#F3784D"/>
<stop offset="0.758333" stop-color="#FF622B"/>
</linearGradient>
<linearGradient id="paint13_linear" x1="30.3727" y1="27.5573" x2="31.7305" y2="47.4531" gradientUnits="userSpaceOnUse">
<stop stop-color="#F3784D"/>
<stop offset="0.758333" stop-color="#FF622B"/>
</linearGradient>
<linearGradient id="paint14_linear" x1="34.0513" y1="39.2288" x2="34.952" y2="52.6884" gradientUnits="userSpaceOnUse">
<stop stop-color="#F3784D"/>
<stop offset="0.758333" stop-color="#FF622B"/>
</linearGradient>
<linearGradient id="paint15_linear" x1="36.5133" y1="48.8404" x2="36.83" y2="53.5703" gradientUnits="userSpaceOnUse">
<stop stop-color="#F3784D"/>
<stop offset="0.758333" stop-color="#FF622B"/>
</linearGradient>
<clipPath id="clip0">
<rect width="210" height="55" fill="white"/>
</clipPath>
</defs>
</svg>
