<svg width="54" height="54" viewBox="0 0 54 54" fill="none" xmlns="http://www.w3.org/2000/svg">
<path d="M0 15C0 6.71573 6.71573 0 15 0H49C51.7614 0 54 2.23858 54 5V39C54 47.2843 47.2843 54 39 54H5C2.23858 54 0 51.7614 0 49V15Z" fill="#E4E4E4"/>
<g clip-path="url(#clip0)">
<g opacity="0.8" filter="url(#filter0_f)">
<circle cx="54" r="40" fill="#E8DADA"/>
</g>
</g>
<g clip-path="url(#clip1)">
<path d="M29.4225 7.99704C31.5125 12.8331 21.9235 15.8197 21.0358 19.8513C20.2164 23.5503 26.7269 27.852 26.7299 27.852C25.7413 26.3202 25.0258 25.0555 24.0343 22.6716C22.3569 18.64 34.2438 14.9944 29.4225 7.99704ZM35.7786 14.6975C35.7786 14.6975 27.383 15.2289 26.9555 20.6024C26.7655 22.9952 29.1613 24.2717 29.2325 26.0144C29.286 27.4334 27.7986 28.618 27.7986 28.618C27.7986 28.618 30.4972 28.1103 31.3433 25.9402C32.2785 23.5325 29.5294 21.8878 29.8055 19.9611C30.0727 18.1175 35.7786 14.6975 35.7786 14.6975ZM37.8152 27.1099C36.9364 27.0713 35.9597 27.3622 35.075 27.9975C36.8088 27.6264 38.2753 28.6863 38.2753 29.9094C38.2753 32.6644 34.2943 35.268 34.2943 35.268C34.2943 35.268 40.4574 34.5644 40.4574 30.04C40.4574 28.1697 39.2758 27.1781 37.8152 27.1099ZM22.5796 27.1158C22.5796 27.1158 14.8875 27.0119 14.8875 29.188C14.8875 31.462 24.9605 31.6224 32.1538 30.2211C32.1538 30.2211 34.0746 28.9059 34.5852 28.4161C29.8708 29.378 19.1121 29.5056 19.1121 28.6744C19.1121 27.9055 22.5796 27.1158 22.5796 27.1158ZM20.7211 31.3492C19.5425 31.3492 17.7821 32.2606 17.7821 33.1394C17.7821 34.9058 26.6675 36.2684 33.2463 33.6856L30.9693 32.2903C26.5102 33.7183 18.2897 33.2611 20.7211 31.3492ZM21.8166 35.3006C20.1986 35.3006 19.1507 36.2981 19.1507 37.0344C19.1507 39.3025 28.808 39.5311 32.6347 37.2244L30.2033 35.6777C27.3444 36.8859 20.166 37.0492 21.8166 35.3006ZM16.4283 37.355C13.7921 37.3016 12.0791 38.4861 12.0791 39.4688C12.0761 44.6938 39.0769 44.4414 39.0769 39.1006C39.0769 38.2159 38.0319 37.7944 37.6549 37.5925C39.8607 42.6988 15.5763 42.3039 15.5763 39.2906C15.5763 38.6049 17.3575 37.9309 19.0141 38.2545L17.6099 37.4559C17.1972 37.3936 16.8024 37.3609 16.4283 37.355ZM41.9239 40.87C37.8182 44.7591 27.4157 46.1781 16.9538 43.7764C27.4127 48.0544 41.8705 45.6467 41.9239 40.87Z" fill="black"/>
</g>
<defs>
<filter id="filter0_f" x="-6" y="-60" width="120" height="120" filterUnits="userSpaceOnUse" color-interpolation-filters="sRGB">
<feFlood flood-opacity="0" result="BackgroundImageFix"/>
<feBlend mode="normal" in="SourceGraphic" in2="BackgroundImageFix" result="shape"/>
<feGaussianBlur stdDeviation="10" result="effect1_foregroundBlur"/>
</filter>
<clipPath id="clip0">
<path d="M0 15C0 6.71573 6.71573 0 15 0H49C51.7614 0 54 2.23858 54 5V39C54 47.2843 47.2843 54 39 54H5C2.23858 54 0 51.7614 0 49V15Z" fill="white"/>
</clipPath>
<clipPath id="clip1">
<rect width="38" height="38" fill="white" transform="translate(8 8)"/>
</clipPath>
</defs>
</svg>
