<svg width="35" height="21" viewBox="0 0 35 21" fill="none" xmlns="http://www.w3.org/2000/svg">
<rect width="35" height="21" rx="2" fill="#EAEAEA"/>
<path d="M20.3333 13.1041C19.9111 13.1041 19.5306 13.2738 19.2417 13.547L15.2833 11.1572C15.3139 11.0278 15.3333 10.8926 15.3333 10.7546C15.3333 10.6165 15.3139 10.4813 15.2833 10.3519L19.2 7.98512C19.4972 8.2727 19.8944 8.451 20.3333 8.451C21.2528 8.451 22 7.6774 22 6.7255C22 5.7736 21.2528 5 20.3333 5C19.4139 5 18.6667 5.7736 18.6667 6.7255C18.6667 6.86354 18.6861 6.99871 18.7167 7.12812L14.8 9.49493C14.5028 9.20735 14.1056 9.02905 13.6667 9.02905C12.7472 9.02905 12 9.80265 12 10.7546C12 11.7065 12.7472 12.4801 13.6667 12.4801C14.1056 12.4801 14.5028 12.3018 14.8 12.0142L18.7583 14.404C18.7306 14.5248 18.7139 14.6513 18.7139 14.7807C18.7139 15.7067 19.4389 16.4573 20.3333 16.4573C21.2278 16.4573 21.9528 15.7067 21.9528 14.7807C21.9528 13.8547 21.2278 13.1041 20.3333 13.1041Z" fill="#111111"/>
</svg>
