<svg width="54" height="54" viewBox="0 0 54 54" fill="none" xmlns="http://www.w3.org/2000/svg">
<path d="M0 15C0 6.71573 6.71573 0 15 0H49C51.7614 0 54 2.23858 54 5V39C54 47.2843 47.2843 54 39 54H5C2.23858 54 0 51.7614 0 49V15Z" fill="#E4E4E4"/>
<g clip-path="url(#clip0)">
<g opacity="0.8" filter="url(#filter0_f)">
<circle cx="54" r="40" fill="#EDF8D8"/>
</g>
</g>
<path d="M14.3646 14.4354L13.7282 13.799L13.0919 14.4354L13.7282 15.0718L14.3646 14.4354ZM20.6008 20.6715L21.2407 21.3044L21.8701 20.668L21.2372 20.0351L20.6008 20.6715ZM14.4354 14.3646L15.0718 13.7282L14.4354 13.0919L13.799 13.7282L14.4354 14.3646ZM20.6715 20.6008L20.0351 21.2372L20.668 21.8701L21.3044 21.2407L20.6715 20.6008ZM33.3285 20.6008L32.6956 21.2407L33.332 21.8701L33.9649 21.2372L33.3285 20.6008ZM39.5646 14.3646L40.201 13.7282L39.5646 13.0919L38.9282 13.7282L39.5646 14.3646ZM39.6354 14.4354L40.2718 15.0718L40.9081 14.4354L40.2718 13.799L39.6354 14.4354ZM33.3992 20.6715L32.7628 20.0351L32.1299 20.668L32.7593 21.3044L33.3992 20.6715ZM33.3992 33.3285L32.7593 32.6956L32.1299 33.332L32.7628 33.9649L33.3992 33.3285ZM39.6354 39.5646L40.2718 40.201L40.9081 39.5646L40.2718 38.9282L39.6354 39.5646ZM39.5646 39.6354L38.9282 40.2718L39.5646 40.9081L40.201 40.2718L39.5646 39.6354ZM33.3285 33.3992L33.9649 32.7628L33.332 32.1299L32.6956 32.7593L33.3285 33.3992ZM20.6715 33.3992L21.3044 32.7593L20.668 32.1299L20.0351 32.7628L20.6715 33.3992ZM14.4354 39.6354L13.799 40.2718L14.4354 40.9081L15.0718 40.2718L14.4354 39.6354ZM14.3646 39.5646L13.7282 38.9282L13.0919 39.5646L13.7282 40.201L14.3646 39.5646ZM20.6008 33.3285L21.2372 33.9649L21.8701 33.332L21.2407 32.6956L20.6008 33.3285ZM27 45.9C37.4382 45.9 45.9 37.4382 45.9 27H44.1C44.1 36.4441 36.4441 44.1 27 44.1V45.9ZM8.1 27C8.1 37.4382 16.5618 45.9 27 45.9V44.1C17.5559 44.1 9.9 36.4441 9.9 27H8.1ZM27 8.1C16.5618 8.1 8.1 16.5618 8.1 27H9.9C9.9 17.5559 17.5559 9.9 27 9.9V8.1ZM45.9 27C45.9 16.5618 37.4382 8.1 27 8.1V9.9C36.4441 9.9 44.1 17.5559 44.1 27H45.9ZM13.7282 15.0718L19.9644 21.3079L21.2372 20.0351L15.001 13.799L13.7282 15.0718ZM13.799 13.7282L13.7282 13.799L15.001 15.0718L15.0718 15.001L13.799 13.7282ZM21.3079 19.9644L15.0718 13.7282L13.799 15.001L20.0351 21.2372L21.3079 19.9644ZM21.3044 21.2407C22.7685 19.7926 24.7792 18.9 27 18.9V17.1C24.2863 17.1 21.826 18.1931 20.0386 19.9609L21.3044 21.2407ZM27 18.9C29.2208 18.9 31.2315 19.7926 32.6956 21.2407L33.9614 19.9609C32.174 18.1931 29.7137 17.1 27 17.1V18.9ZM38.9282 13.7282L32.6921 19.9644L33.9649 21.2372L40.201 15.001L38.9282 13.7282ZM40.2718 13.799L40.201 13.7282L38.9282 15.001L38.999 15.0718L40.2718 13.799ZM34.0356 21.3079L40.2718 15.0718L38.999 13.799L32.7628 20.0351L34.0356 21.3079ZM32.7593 21.3044C34.2074 22.7685 35.1 24.7792 35.1 27H36.9C36.9 24.2863 35.8069 21.8261 34.0391 20.0386L32.7593 21.3044ZM35.1 27C35.1 29.2208 34.2074 31.2315 32.7593 32.6956L34.0391 33.9614C35.8069 32.174 36.9 29.7137 36.9 27H35.1ZM40.2718 38.9282L34.0356 32.6921L32.7628 33.9649L38.999 40.201L40.2718 38.9282ZM40.201 40.2718L40.2718 40.201L38.999 38.9282L38.9282 38.999L40.201 40.2718ZM32.6921 34.0356L38.9282 40.2718L40.201 38.999L33.9649 32.7628L32.6921 34.0356ZM32.6956 32.7593C31.2315 34.2074 29.2208 35.1 27 35.1V36.9C29.7137 36.9 32.174 35.8069 33.9614 34.0391L32.6956 32.7593ZM27 35.1C24.7792 35.1 22.7685 34.2074 21.3044 32.7593L20.0386 34.0391C21.8261 35.8069 24.2863 36.9 27 36.9V35.1ZM15.0718 40.2718L21.3079 34.0356L20.0351 32.7628L13.799 38.999L15.0718 40.2718ZM13.7282 40.201L13.799 40.2718L15.0718 38.999L15.001 38.9282L13.7282 40.201ZM19.9644 32.6921L13.7282 38.9282L15.001 40.201L21.2372 33.9649L19.9644 32.6921ZM21.2407 32.6956C19.7926 31.2315 18.9 29.2208 18.9 27H17.1C17.1 29.7137 18.1931 32.174 19.9609 33.9614L21.2407 32.6956ZM18.9 27C18.9 24.7792 19.7926 22.7685 21.2407 21.3044L19.9609 20.0386C18.1931 21.826 17.1 24.2863 17.1 27H18.9Z" fill="#282828"/>
<defs>
<filter id="filter0_f" x="-6" y="-60" width="120" height="120" filterUnits="userSpaceOnUse" color-interpolation-filters="sRGB">
<feFlood flood-opacity="0" result="BackgroundImageFix"/>
<feBlend mode="normal" in="SourceGraphic" in2="BackgroundImageFix" result="shape"/>
<feGaussianBlur stdDeviation="10" result="effect1_foregroundBlur"/>
</filter>
<clipPath id="clip0">
<path d="M0 15C0 6.71573 6.71573 0 15 0H49C51.7614 0 54 2.23858 54 5V39C54 47.2843 47.2843 54 39 54H5C2.23858 54 0 51.7614 0 49V15Z" fill="white"/>
</clipPath>
</defs>
</svg>
