<svg width="54" height="54" viewBox="0 0 54 54" fill="none" xmlns="http://www.w3.org/2000/svg">
<path d="M0 15C0 6.71573 6.71573 0 15 0H49C51.7614 0 54 2.23858 54 5V39C54 47.2843 47.2843 54 39 54H5C2.23858 54 0 51.7614 0 49V15Z" fill="#E4E4E4"/>
<g clip-path="url(#clip0)">
<g opacity="0.6" filter="url(#filter0_f)">
<circle cx="54" r="40" fill="#F7DDC4"/>
</g>
</g>
<path d="M14.3335 34.9166L23.8335 25.4166L14.3335 15.9166" stroke="black" stroke-width="2" stroke-linecap="round" stroke-linejoin="round"/>
<path d="M27 38.0834H39.6667" stroke="black" stroke-width="2" stroke-linecap="round" stroke-linejoin="round"/>
<defs>
<filter id="filter0_f" x="-6" y="-60" width="120" height="120" filterUnits="userSpaceOnUse" color-interpolation-filters="sRGB">
<feFlood flood-opacity="0" result="BackgroundImageFix"/>
<feBlend mode="normal" in="SourceGraphic" in2="BackgroundImageFix" result="shape"/>
<feGaussianBlur stdDeviation="10" result="effect1_foregroundBlur"/>
</filter>
<clipPath id="clip0">
<path d="M0 15C0 6.71573 6.71573 0 15 0H49C51.7614 0 54 2.23858 54 5V39C54 47.2843 47.2843 54 39 54H5C2.23858 54 0 51.7614 0 49V15Z" fill="white"/>
</clipPath>
</defs>
</svg>
