<svg width="35" height="21" viewBox="0 0 35 21" fill="none" xmlns="http://www.w3.org/2000/svg">
<rect width="35" height="21" rx="2" fill="#282828"/>
<path d="M24 6.85667C23.5583 7.04832 23.0844 7.1783 22.5865 7.23633C23.0949 6.93818 23.4841 6.46529 23.6685 5.90353C23.1916 6.17963 22.6652 6.38011 22.1043 6.48879C21.6552 6.01956 21.0163 5.72729 20.3077 5.72729C18.9482 5.72729 17.8459 6.80675 17.8459 8.13734C17.8459 8.32605 17.8676 8.51037 17.9096 8.68662C15.864 8.586 14.0501 7.62625 12.8361 6.16787C12.6239 6.5233 12.5031 6.93743 12.5031 7.37951C12.5031 8.21591 12.9381 8.9539 13.5979 9.38567C13.1945 9.37246 12.8151 9.26378 12.4829 9.08313V9.11324C12.4829 10.2808 13.3317 11.2552 14.4573 11.477C14.2511 11.5314 14.0336 11.5615 13.8086 11.5615C13.6497 11.5615 13.496 11.5461 13.3452 11.5167C13.6587 12.475 14.5675 13.1718 15.6443 13.1909C14.8022 13.8371 13.7404 14.2212 12.5871 14.2212C12.3884 14.2212 12.1927 14.2094 12 14.1882C13.0896 14.8733 14.3831 15.2727 15.7733 15.2727C20.3017 15.2727 22.777 11.5997 22.777 8.41419L22.7687 8.1021C23.2524 7.76429 23.6708 7.33986 24 6.85667Z" fill="white"/>
</svg>
